<svg width="42" height="42" viewBox="0 0 42 42" fill="none" xmlns="http://www.w3.org/2000/svg">
<path d="M38.2981 12.0944C36.9244 9.43468 34.9604 7.12452 32.5567 5.34073C31.879 4.84063 31.1689 4.38593 30.4311 3.97962C27.4699 2.33258 24.1297 1.48824 20.7417 1.53031C17.3536 1.57237 14.0354 2.49937 11.116 4.21941C8.19651 5.93946 5.77721 8.39281 4.09791 11.3363C2.41861 14.2797 1.53763 17.611 1.54229 21C1.54755 24.8197 2.6775 28.5532 4.7911 31.7346C6.90469 34.916 9.9083 37.4043 13.427 38.8889C15.8148 39.8943 18.3793 40.4122 20.97 40.4122C23.5607 40.4122 26.1253 39.8943 28.513 38.8889C32.0414 37.4122 35.0559 34.9273 37.1792 31.7453C39.3024 28.5633 40.44 24.8256 40.4496 21C40.4641 17.901 39.7258 14.8449 38.2981 12.0944ZM8.48909 13.7926C9.88377 12.1955 11.7187 11.0456 13.764 10.487C14.6979 10.2356 15.6611 10.1092 16.6283 10.1111C18.824 10.0718 20.9718 10.7563 22.7401 12.0588C24.5085 13.3613 25.7993 15.2096 26.4134 17.3185C26.9488 19.2806 26.8351 21.3634 26.0894 23.2555C25.3527 25.156 24.0725 26.7972 22.4086 27.9741C21.9106 28.3282 21.3813 28.6363 20.8274 28.8944C20.2271 29.1925 19.5973 29.4271 18.9482 29.5944C16.3685 30.3604 13.5905 30.0729 11.2222 28.795C8.85396 27.5171 7.0883 25.3529 6.31173 22.7759C6.31173 22.6333 6.23397 22.4907 6.20805 22.3481C5.97471 21.3062 5.9221 20.2319 6.05252 19.1722C6.05252 18.887 6.14325 18.6018 6.20805 18.3296C6.57599 16.6447 7.37034 15.0824 8.51501 13.7926H8.48909ZM10.0962 31.5907C10.6327 32.3813 11.3373 33.0434 12.1596 33.5297C12.9819 34.016 13.9016 34.3145 14.8527 34.4037H15.073C15.7266 34.4834 16.387 34.3257 16.9341 33.9593C17.4812 33.5929 17.8786 33.0422 18.0539 32.4074L18.2354 32.0315C18.7934 30.9551 19.642 30.0569 20.6849 29.4389C20.0202 29.9361 19.4784 30.579 19.1009 31.3183C18.7235 32.0576 18.5205 32.8737 18.5075 33.7037C18.514 34.2662 18.6384 34.8211 18.8729 35.3324C19.1073 35.8438 19.4464 36.3002 19.8684 36.6722C20.4503 37.1512 21.1649 37.4407 21.9161 37.5018C19.8039 37.593 17.6944 37.267 15.7081 36.5426C13.8372 35.8586 12.1354 34.7798 10.7183 33.3796C8.1439 30.7017 6.51465 27.2559 6.07845 23.5667C6.79531 26.5103 8.16886 29.2535 10.0962 31.5907ZM32.8807 32.55C30.6363 34.7317 27.8624 36.2909 24.8322 37.0741C24.2559 37.1506 23.6719 37.1506 23.0955 37.0741C22.363 37.0063 21.685 36.6579 21.2033 36.1018C22.279 35.5963 23.4714 34.8833 24.8582 34.0667C25.8172 33.4963 26.9189 32.8611 28.1631 32.1611C28.596 31.8871 29.0787 31.7014 29.5836 31.6147C30.0885 31.5279 30.6056 31.5418 31.1051 31.6555C31.5305 31.692 31.9588 31.6394 32.3627 31.501C32.7666 31.3626 33.1372 31.1415 33.4509 30.8518C34.4773 29.9584 35.3222 28.8758 35.9393 27.6629C36.7448 26.2205 37.3798 24.6892 37.8316 23.1C37.8377 23.0788 37.8377 23.0563 37.8316 23.0352C37.2012 26.6414 35.472 29.9646 32.8807 32.55ZM37.676 13.5592C37.8704 14.363 38.026 15.0889 38.1297 15.763C38.3069 17.0947 38.359 18.44 38.2852 19.7815C38.2852 19.8592 38.2852 19.937 38.2852 20.0148C38.2223 21.0343 37.9673 22.0327 37.5335 22.9574C37.1082 23.7911 36.5427 24.5453 35.8616 25.187C33.6972 27.2222 29.809 30.0741 23.0955 34.2611C22.953 34.3518 22.4216 34.7018 21.9291 35.0648C21.5987 35.2912 21.2827 35.538 20.983 35.8037C20.8432 35.5107 20.7597 35.1941 20.7367 34.8704C20.6889 34.4663 20.7265 34.0568 20.847 33.6682C20.9676 33.2796 21.1685 32.9207 21.4366 32.6148C22.2327 31.7049 23.1482 30.9069 24.1583 30.2426L24.9878 29.6722H25.0655L27.217 28.0129C29.8389 26.0968 32.3207 23.9958 34.6433 21.7259C35.935 20.6023 36.8417 19.1015 37.2354 17.4352C37.4912 15.5277 37.2547 13.5865 36.5485 11.7963C36.1016 10.4706 35.4875 9.20729 34.7211 8.03703C34.5785 7.81666 34.423 7.59629 34.2674 7.38888C35.8881 9.13808 37.058 11.256 37.676 13.5592ZM6.72647 8.29629C8.4747 6.58384 10.6147 5.32449 12.9604 4.62777C15.8416 3.70633 18.8887 3.42324 21.8902 3.79814C24.5396 3.98099 27.0132 5.19013 28.7852 7.16851C29.9223 8.41052 30.8503 9.82898 31.5328 11.3685C32.2323 12.7999 32.7087 14.33 32.9455 15.9055C33.2583 17.5424 32.9287 19.2368 32.0253 20.637L31.4809 21.6222C30.6532 23.4249 29.5612 25.0939 28.2408 26.5741L28.6556 26.0167C30.6904 23.0481 31.144 19.2241 29.9516 14.9463C29.4323 13.0183 28.5138 11.2208 27.2558 9.67036C26.1049 8.23882 24.6595 7.07168 23.0178 6.24814C19.6272 4.59315 15.743 4.25593 12.118 5.30184C10.1086 5.85767 8.26045 6.88413 6.72647 8.29629Z" fill="#CD202C"/>
<path d="M15.4748 23.6574C15.9391 23.6512 16.4008 23.5859 16.8486 23.463C17.5217 23.2882 18.1534 22.9816 18.7074 22.5611C19.2613 22.1406 19.7264 21.6144 20.0757 21.013C20.4475 20.4329 20.6978 19.7835 20.8114 19.1039C20.925 18.4243 20.8996 17.7288 20.7367 17.0593C20.3505 15.7243 19.4533 14.5957 18.24 13.9185C17.0266 13.2413 15.5952 13.0703 14.2565 13.4426C12.9014 13.8048 11.7426 14.6846 11.0293 15.8926C10.6548 16.4714 10.4029 17.1209 10.2892 17.801C10.1755 18.481 10.2024 19.1771 10.3684 19.8463C10.6739 20.9595 11.3422 21.9388 12.2671 22.6291C13.1921 23.3194 14.3209 23.6813 15.4748 23.6574ZM11.9625 17.9278C12.1443 18.2598 12.3903 18.5523 12.6862 18.7882C12.9822 19.0241 13.3221 19.1987 13.6862 19.3019C14.4228 19.5171 15.2144 19.4332 15.8895 19.0686C16.2214 18.8867 16.5139 18.6407 16.7497 18.3447C16.9856 18.0487 17.1602 17.7087 17.2633 17.3445C17.4799 16.6079 17.396 15.8156 17.03 15.1408C16.825 14.7729 16.5428 14.4538 16.2027 14.2054C15.8626 13.957 15.4728 13.7852 15.06 13.7019C15.7896 13.7599 16.4811 14.0513 17.0322 14.5329C17.5834 15.0144 17.9649 15.6606 18.1204 16.3759C18.276 17.0912 18.1972 17.8375 17.8958 18.5045C17.5944 19.1715 17.0863 19.7238 16.4468 20.0797C15.6627 20.5179 14.7369 20.6275 13.8722 20.3846C13.0074 20.1416 12.2742 19.5659 11.8329 18.7834C11.5603 18.2904 11.4141 17.7376 11.4073 17.1744C11.4005 16.6111 11.5334 16.0549 11.794 15.5556C11.6523 15.9403 11.594 16.3508 11.6231 16.7598C11.6521 17.1688 11.7678 17.567 11.9625 17.9278Z" fill="#CD202C"/>
<path d="M7.54298 25.2648H7.90588C11.133 24.2537 12.0273 24.2277 13.44 24.4351H13.6344C14.2306 24.5283 14.8325 24.5803 15.4359 24.5907C16.4963 24.5883 17.5423 24.3445 18.4946 23.8777C20.0466 23.0975 21.2625 21.78 21.9161 20.1703C22.6808 18.5889 23.1215 18.1222 25.8043 16.1C24.179 15.5294 22.5942 14.8494 21.0607 14.0648C19.9987 13.4942 18.883 13.0296 17.7299 12.6777C16.0926 12.1911 14.333 12.3297 12.792 13.0666C12.0246 13.4568 11.335 13.984 10.7572 14.6222C10.1985 15.2551 9.75936 15.9842 9.46113 16.774C9.06728 17.9806 8.78953 19.2221 8.63166 20.4814C8.3933 22.1399 8.04696 23.7811 7.59483 25.3944L7.54298 25.2648ZM9.15008 20.3777C9.29834 19.1795 9.56312 17.9986 9.94067 16.8518C10.2185 16.119 10.6268 15.4426 11.146 14.8555C11.6852 14.275 12.321 13.7925 13.0253 13.4296C14.4485 12.7612 16.0682 12.6412 17.5744 13.0926C18.6862 13.4166 19.763 13.8509 20.7886 14.3889C22.1932 15.0946 23.6338 15.7263 25.1044 16.2814C22.6678 18.0963 22.1753 18.6407 21.4107 20.1703C20.9453 21.3781 20.1257 22.4168 19.0594 23.1502C17.9931 23.8836 16.73 24.2773 15.4359 24.2796C14.8585 24.267 14.2825 24.215 13.7122 24.124H13.5178C11.7231 23.9004 9.90124 24.1461 8.22989 24.837C8.61837 23.3686 8.92557 21.88 9.15008 20.3777Z" fill="#CD202C"/>
</svg>
