<?xml version="1.0" encoding="UTF-8"?>
<svg xmlns="http://www.w3.org/2000/svg" id="Layer_1" data-name="Layer 1" viewBox="0 0 144 30.96">
  <defs>
    <style>.cls-1{fill:#dc2728;}.cls-2{fill:#f2eee2;}</style>
  </defs>
  <path class="cls-1" d="M28.79,8.74a15.14,15.14,0,0,0-4.43-5.21h0A15.48,15.48,0,0,0,23,2.64h0l-.09-.05-.14-.08-.05,0h0A15,15,0,0,0,.43,15.61,15,15,0,0,0,4.82,26.23a15,15,0,0,0,24.45-4.77,15.07,15.07,0,0,0-.48-12.72Zm-23,1.31A8.31,8.31,0,0,1,9.88,7.5a8.44,8.44,0,0,1,2.21-.29,7.72,7.72,0,0,1,7.55,5.56,7.27,7.27,0,0,1-.25,4.58A8,8,0,0,1,16.55,21a7.77,7.77,0,0,1-1.22.71h0a7.43,7.43,0,0,1-1.45.54A7.84,7.84,0,0,1,4.13,17c0-.11-.06-.22-.08-.32a7.21,7.21,0,0,1-.12-2.45c0-.22.07-.45.12-.66h0A7.77,7.77,0,0,1,5.81,10.05ZM7,23.78A5,5,0,0,0,10.7,26h.17a2.12,2.12,0,0,0,2.3-1.55l.14-.29a4.88,4.88,0,0,1,1.89-2,4.16,4.16,0,0,0-1.68,3.29,3.14,3.14,0,0,0,1.05,2.3,3,3,0,0,0,1.58.64,12.61,12.61,0,0,1-4.79-.75,10.71,10.71,0,0,1-3.85-2.44,13.15,13.15,0,0,1-3.58-7.57A15.43,15.43,0,0,0,7,23.78Zm17.58.74A13.9,13.9,0,0,1,18.4,28a5.09,5.09,0,0,1-1.34,0,2.2,2.2,0,0,1-1.46-.75c.83-.39,1.75-.94,2.82-1.56.74-.44,1.59-.94,2.55-1.48a3,3,0,0,1,2.29-.42,2.37,2.37,0,0,0,1.81-.62A8.18,8.18,0,0,0,27,20.75a16.44,16.44,0,0,0,1.46-3.52.07.07,0,0,0,0-.05l0,0A13.7,13.7,0,0,1,24.61,24.52Zm3.7-14.65c.15.62.27,1.18.35,1.7a16.59,16.59,0,0,1,.12,3.1c0,.06,0,.12,0,.19a6.25,6.25,0,0,1-.58,2.26,6.29,6.29,0,0,1-1.29,1.72c-1.65,1.61-4.68,3.77-9.83,7-.11.07-.52.34-.9.62a6.27,6.27,0,0,0-.73.57,2,2,0,0,1-.21-.72,2.21,2.21,0,0,1,.54-1.74,9.8,9.8,0,0,1,2.1-1.83h0l.64-.44h0l.06,0c.58-.41,1.14-.82,1.68-1.22A52.61,52.61,0,0,0,26,16.17a6.31,6.31,0,0,0,2-3.31,8.7,8.7,0,0,0-.57-4.35A12.69,12.69,0,0,0,26,5.61c-.11-.17-.23-.34-.35-.5A11.32,11.32,0,0,1,28.31,9.87ZM4.43,5.81A11.59,11.59,0,0,1,9.26,3a16.08,16.08,0,0,1,6.89-.64,7.87,7.87,0,0,1,5.32,2.6,12,12,0,0,1,2.12,3.24,12.05,12.05,0,0,1,1.09,3.5A5,5,0,0,1,24,15.33l-.42.76a15.38,15.38,0,0,1-2.5,3.82l.32-.43c1.57-2.29,1.92-5.24,1-8.54a11.07,11.07,0,0,0-2.08-4.07A10,10,0,0,0,17,4.23,11.75,11.75,0,0,0,8.61,3.5,10.13,10.13,0,0,0,4.43,5.81Z"></path>
  <path class="cls-1" d="M11.18,17.66a4.67,4.67,0,0,0,1.1-.14,4.11,4.11,0,0,0,2.49-1.9,3.93,3.93,0,0,0,.42-3,4.07,4.07,0,0,0-5-2.79,4.18,4.18,0,0,0-2.5,1.89,3.94,3.94,0,0,0-.41,3.05A4,4,0,0,0,11.18,17.66ZM8.47,13.24A2.2,2.2,0,0,0,9.8,14.3a2.25,2.25,0,0,0,1.7-.18,2.2,2.2,0,0,0,1.06-1.33,2.24,2.24,0,0,0-.18-1.7h0A2.28,2.28,0,0,0,10.86,10a2.63,2.63,0,1,1-.93,5.14,2.57,2.57,0,0,1-1.56-1.25,2.63,2.63,0,0,1,0-2.48A2.23,2.23,0,0,0,8.47,13.24Z"></path>
  <path class="cls-1" d="M5.06,18.9h0s0,0,0,0h0a0,0,0,0,1,0,0h0l0,0h0l0,0h0l0,0h.19c2.49-.78,3.18-.79,4.27-.64l.15,0a10.13,10.13,0,0,0,1.39.12,5.42,5.42,0,0,0,2.36-.55,5.53,5.53,0,0,0,2.64-2.86c.59-1.22.93-1.58,3-3.14h0l0,0h0l0,0h0s0,0,0,0h0a.06.06,0,0,1,0,0h0v0h0a.06.06,0,0,0,0,0h0s0,0,0,0h0s0,0,0,0h0l0,0h0l0,0h0a29.46,29.46,0,0,1-3.66-1.57A14.17,14.17,0,0,0,12.9,9a5.32,5.32,0,0,0-3.81.3A5.3,5.3,0,0,0,6.51,12.2a15.38,15.38,0,0,0-.64,2.86,29.7,29.7,0,0,1-.8,3.79h0a.06.06,0,0,0,0,0ZM6.3,15.13a14.32,14.32,0,0,1,.61-2.77,5,5,0,0,1,.93-1.54,5.28,5.28,0,0,1,1.45-1.1,4.93,4.93,0,0,1,3.51-.26,14.16,14.16,0,0,1,2.48,1A34.76,34.76,0,0,0,18.61,12c-1.88,1.4-2.26,1.82-2.85,3a4.95,4.95,0,0,1-4.61,3.17,9.81,9.81,0,0,1-1.33-.12l-.15,0a8.07,8.07,0,0,0-4.08.55A31.86,31.86,0,0,0,6.3,15.13Z"></path>
  <path class="cls-2" d="M38.45,23c-1.29-.3-1.61-.82-1.65-1.67A23.09,23.09,0,0,1,37,18h.17c.49,3.32,2.42,5.08,4.41,5.08a3.06,3.06,0,0,0,3.22-3.24c0-1.77-1.22-2.65-3.13-3.15C39.22,16.1,37,15.1,37,12.14c0-2.66,2-4.24,5.46-4.24a10.89,10.89,0,0,1,2.47.26c1.11.25,1.37.7,1.47,1.52a20.64,20.64,0,0,1,0,3h-.2c-.45-2.2-1.75-4.54-3.83-4.54a2.75,2.75,0,0,0-2.93,2.94c0,2,1.34,2.76,3,3.21,3.1.82,4.69,2,4.69,4.5,0,2.85-2.25,4.56-5.68,4.56A12.8,12.8,0,0,1,38.45,23Z"></path>
  <path class="cls-2" d="M58.47,23.07C56.37,23,55.71,23,53.72,23c-2.4,0-3.92,0-6.47.07v-.18c2.12-.08,2.46-.87,2.46-3.15V11.37c0-2.44-.49-2.93-2.46-3V8.16c1.58,0,3.64.06,5.76.06,2,0,3.47,0,5.59-.11a3.46,3.46,0,0,1,.28,2.1L58.77,12h-.13c-.74-2.83-1.84-3.45-5.71-3.51l-.48,0c0,.3,0,1.56,0,2v4.67h1c3.62,0,3.79-.62,4.15-2.1h.13v4.76h-.15c-.26-1.74-.54-2.34-4.13-2.36h-1v4.71c0,2,.34,2.51,2.44,2.51,2.47,0,3.78-.68,5.18-3.24h.15Z"></path>
  <path class="cls-2" d="M59.82,23c1.48-3.08,6.07-12.83,7-15l.13,0c.73,2,3.47,8.35,5,11.91,1,2.31,1.42,2.89,2.79,3.06v.18C73.54,23,72.34,23,71.14,23c-1.41,0-2.65,0-3.75.07v-.18c1.74-.1,2.44-.68,1.91-2.33-.32-1-1-2.51-1.33-3.43h-5c-.22.45-.75,1.76-1.2,3-.71,2.12.13,2.7,1.95,2.74v.18C62.81,23,61.06,23,59.82,23Zm8-6.17c-.34-.94-1.9-4.56-2.27-5.5l-2.46,5.5Z"></path>
  <path class="cls-2" d="M87.68,23c1.47-3.08,6.07-12.83,7-15l.13,0c.72,2,3.47,8.35,5,11.91,1,2.31,1.41,2.89,2.78,3.06v.18C101.39,23,100.2,23,99,23c-1.42,0-2.66,0-3.75.07v-.18c1.73-.1,2.44-.68,1.9-2.33-.32-1-1-2.51-1.32-3.43h-5c-.21.45-.75,1.76-1.2,3-.7,2.12.13,2.7,2,2.74v.18C90.66,23,88.92,23,87.68,23Zm8-6.17c-.35-.94-1.91-4.56-2.28-5.5l-2.46,5.5Z"></path>
  <path class="cls-2" d="M104.06,23c-1.29-.3-1.61-.82-1.65-1.67a20,20,0,0,1,.15-3.26h.17c.49,3.32,2.42,5.08,4.41,5.08a3.05,3.05,0,0,0,3.21-3.24c0-1.77-1.22-2.65-3.12-3.15-2.4-.62-4.67-1.62-4.65-4.58,0-2.66,2-4.24,5.46-4.24a10.8,10.8,0,0,1,2.46.26c1.12.25,1.37.7,1.48,1.52a19.81,19.81,0,0,1,0,3h-.19c-.45-2.2-1.76-4.54-3.83-4.54A2.75,2.75,0,0,0,105,11.05c0,2,1.35,2.76,3,3.21,3.11.82,4.69,2,4.69,4.5,0,2.85-2.25,4.56-5.67,4.56A12.74,12.74,0,0,1,104.06,23Z"></path>
  <path class="cls-2" d="M127,22.89c1.25-.12,1.89-.66,2.79-2.52,1.48-3.09,4.84-10.2,5.74-12.41l.13,0c.73,2,3.47,8.35,5,11.91,1,2.31,1.41,2.89,2.78,3.06v.18c-1.17-.05-2.37-.07-3.57-.07-1.42,0-2.66,0-3.75.07v-.18c1.73-.1,2.44-.68,1.91-2.33-.33-1-1-2.51-1.33-3.43h-5c-.21.45-.75,1.76-1.2,3-.7,2.12.13,2.7,2,2.74v.18c-.87-.05-1.45-.07-2.7-.07-.9,0-1.77,0-2.72.07Zm9.56-6.06c-.35-.94-1.91-4.56-2.27-5.5l-2.47,5.5Z"></path>
  <path class="cls-2" d="M88,19.46c-1.4,2.56-2.71,3.24-5.18,3.24a4.41,4.41,0,0,1-1.54-.2c-.65-.28-.9-.92-.9-2.31V11.41c0-2.4.47-2.95,2.29-3.08V8.16c-1.07,0-2.27.06-3.64.06s-2.48,0-3.81-.06v.17c2.18.08,2.46.85,2.46,3.08v8.76a1.09,1.09,0,0,0,0,.18c0,.07,0,.14,0,.2a.38.38,0,0,1,0,.1,2,2,0,0,1,0,.25h0c-.15,1.4-.73,1.92-2.41,2v.18c2-.07,3.53-.07,6-.07h.52c2,0,2.65,0,4.75.07l1.7-3.61Z"></path>
  <path class="cls-2" d="M123.7,18.18c-.38-.55-.77-1.15-1.15-1.77h0a2.6,2.6,0,0,0-4-.77l2.57-2.51h0c.66-.68,1.65-1.7,2.81-2.87a5.64,5.64,0,0,1,3.51-1.93V8.16c-.92,0-1.77.06-2.57.06s-2,0-3-.06v.17c1.22.08,2.27.58,1.54,1.6a36.58,36.58,0,0,1-2.93,3.32c-1.14,1.18-2.17,2.19-2.92,2.92V11.46c0-2.23.24-3,2.19-3.13V8.16c-1.29,0-2.21.06-3.56.06s-2.48,0-3.79-.06v.17c2.19.08,2.46.85,2.46,3.08v8.38c0,2.25-.38,3-2.46,3.1v.18C113.91,23,115,23,116.27,23s2.29,0,3.58.07v-.18c-1.82-.06-2.19-.81-2.19-3.12V16.55l0,0c.21-.21,1.27-1.15,1.86-.08h0c.42.79.89,1.64,1.4,2.47a11.79,11.79,0,0,0,2.18,2.82,5.63,5.63,0,0,0,4.09,1.35,15.3,15.3,0,0,0,2-.08v-.11C127.39,22.79,126.27,21.89,123.7,18.18Z"></path>
  <path class="cls-2" d="M125.67,20.8s1.51,1.76,2.32,1.76,1.6-1.73,1.6-1.73l-.29,2-2.56-.06-1.17-2.05"></path>
  <rect class="cls-2" x="63.09" y="16.79" width="4.73" height="0.09"></rect>
  <rect class="cls-2" x="62.94" y="17.06" width="5.3" height="0.09"></rect>
  <path class="cls-2" d="M63.69,22.94c-1.08,0-1.7-.24-2-.68a2.41,2.41,0,0,1,0-2.12l.08,0c-.32.95-.33,1.62,0,2s.89.62,1.94.65Z"></path>
  <path class="cls-2" d="M61.78,20.17l-.08,0c.46-1.3,1-2.59,1.2-3l.08,0C62.77,17.58,62.24,18.87,61.78,20.17Z"></path>
  <polygon class="cls-2" points="63.13 16.85 63.05 16.81 65.51 11.31 65.59 11.35 63.13 16.85"></polygon>
  <path class="cls-2" d="M89.63,20.17l-.08,0c.46-1.3,1-2.59,1.2-3l.08,0C90.63,17.58,90.1,18.87,89.63,20.17Z"></path>
  <rect class="cls-2" x="90.79" y="17.09" width="5.03" height="0.09"></rect>
  <rect class="cls-2" x="90.94" y="16.79" width="4.73" height="0.09"></rect>
  <polygon class="cls-2" points="90.98 16.85 90.9 16.81 93.36 11.31 93.44 11.35 90.98 16.85"></polygon>
  <path class="cls-2" d="M91.54,22.94c-1.08,0-1.7-.24-2-.68a2.4,2.4,0,0,1,0-2.12l.08,0a2.35,2.35,0,0,0,0,2c.3.43.9.62,1.94.65Z"></path>
  <path class="cls-2" d="M132.46,22.94c-1.08,0-1.7-.24-2-.68a2.44,2.44,0,0,1,0-2.12l.09,0a2.32,2.32,0,0,0,0,2c.3.43.9.62,1.94.65Z"></path>
  <path class="cls-2" d="M130.56,20.17l-.09,0c.46-1.3,1-2.59,1.2-3l.08,0C131.55,17.58,131,18.87,130.56,20.17Z"></path>
  <rect class="cls-2" x="131.71" y="17.09" width="5.03" height="0.09"></rect>
  <rect class="cls-2" x="131.86" y="16.79" width="4.73" height="0.09"></rect>
  <polygon class="cls-2" points="131.9 16.85 131.82 16.81 134.29 11.31 134.37 11.35 131.9 16.85"></polygon>
</svg>
